<?xml version="1.0" standalone="no"?>
<!DOCTYPE svg PUBLIC "-//W3C//DTD SVG 20010904//EN"
 "http://www.w3.org/TR/2001/REC-SVG-20010904/DTD/svg10.dtd">
<svg version="1.0" xmlns="http://www.w3.org/2000/svg"
 width="512.000000pt" height="512.000000pt" viewBox="0 0 512.000000 512.000000"
 preserveAspectRatio="xMidYMid meet">
<metadata>
Created by potrace 1.11, written by Peter Selinger 2001-2013
</metadata>
<g transform="translate(0.000000,512.000000) scale(0.100000,-0.100000)"
fill="#000000" stroke="none">
<path d="M1485 4698 c-4 -13 -29 -134 -39 -193 -3 -16 -10 -55 -16 -85 -6 -30
-13 -66 -16 -80 -5 -26 -40 -205 -49 -250 -3 -14 -7 -36 -10 -50 -3 -14 -7
-36 -10 -50 -3 -14 -14 -72 -25 -130 -11 -58 -22 -116 -25 -130 -3 -14 -7 -36
-10 -50 -3 -14 -7 -36 -10 -50 -3 -14 -8 -36 -10 -50 -2 -14 -9 -50 -15 -80
-6 -30 -13 -66 -16 -80 -2 -14 -11 -59 -19 -100 -20 -99 -23 -115 -35 -182 -6
-32 -13 -70 -16 -85 -3 -15 -23 -118 -45 -228 -22 -110 -49 -245 -59 -300 -11
-55 -22 -113 -25 -130 -3 -16 -19 -100 -36 -185 -16 -85 -36 -184 -44 -220 -7
-36 -17 -85 -20 -110 -4 -24 -8 -47 -10 -50 -2 -3 -6 -23 -9 -45 -4 -22 -20
-105 -36 -185 -16 -80 -32 -161 -35 -180 -3 -19 -19 -102 -35 -183 -17 -82
-30 -155 -30 -163 0 -12 72 -14 468 -14 l467 0 54 278 c30 152 56 282 57 287
1 6 5 26 8 45 4 19 24 123 46 230 21 107 53 267 70 355 18 88 33 166 33 173 0
11 40 13 216 9 229 -5 242 -6 324 -37 120 -45 211 -161 281 -357 22 -61 263
-853 288 -945 l10 -38 469 0 468 0 -16 53 c-153 521 -334 1106 -367 1189 -86
211 -195 348 -328 411 -40 19 -84 39 -98 44 -23 9 -20 11 30 18 77 10 214 51
285 85 213 100 385 288 472 515 57 148 77 273 75 465 -3 374 -185 633 -536
765 -81 30 -249 73 -321 81 -27 3 -61 8 -75 12 -14 3 -395 7 -848 9 -673 4
-823 2 -827 -9z m1385 -682 c198 -43 290 -159 284 -361 -8 -276 -131 -453
-364 -525 -102 -31 -184 -39 -441 -40 -226 -1 -240 0 -235 17 4 17 19 92 30
153 2 14 16 81 30 150 14 69 27 136 30 150 5 32 47 242 50 255 1 6 11 56 21
113 l19 103 270 -4 c149 -2 287 -7 306 -11z"/>
<path d="M670 520 l0 -110 1925 0 1925 0 0 110 0 110 -1925 0 -1925 0 0 -110z"/>
</g>
</svg>
